<svg xmlns="http://www.w3.org/2000/svg" viewBox="0 0 337.65 71.74"><defs><style>.cls-1,.cls-2{fill:#e6e6e6;}.cls-2{stroke:#000;stroke-linecap:round;stroke-linejoin:round;stroke-width:2.5px;}</style></defs><g id="Layer_2" data-name="Layer 2"><g id="About_Page" data-name="About Page"><g id="Footer"><g id="Logo"><path class="cls-1" d="M118.9,26.42c.88-.3.69.39-.2,1.08a17.69,17.69,0,0,1-6.7,3.25,61.27,61.27,0,0,1-10.34.79,1.15,1.15,0,0,0-1.08.88,171.08,171.08,0,0,0-.2,18.13c0,4.73.79,7.88,2.76,9.85a8.73,8.73,0,0,0,6.1,2.26,14.54,14.54,0,0,0,8.38-2.85c.29-.1.49-.1.49.19a3.13,3.13,0,0,1-1,2c-1.87,2.07-6.89,5.32-11.91,5.32a9.27,9.27,0,0,1-6.8-2.36c-2.07-2.07-3.25-5.71-3.35-10.84-.1-8.86.39-19.7.39-21.67,0-.59-.19-1-.78-1a51.91,51.91,0,0,1-6.11-.89c-1.08-.19-1.18-.49-.69-.88s3.25-2.47,4-2.37c1,.1,2.17.2,3,.2.59,0,.89-.3.89-1.18.29-3.94.49-5.71,1.57-7.39,2.37-3.45,3.75-5.22,4.44-5.71s.88-.3.59.59c-.89,1.87-1.48,6.89-1.48,13.1,0,.39.39.59.79.69a58.21,58.21,0,0,0,8.47,0A41,41,0,0,0,118.9,26.42Z"/><path class="cls-1" d="M161.35,41.88c0,7.39-.5,15.66-.79,18.81a1.56,1.56,0,0,0,.59,1.19c1.38,1.08,4.92,1.28,8.08.88.49-.1-.1.69-.59,1.18-3.45,3.06-9.46,3.75-11.53,3.75-1,0-1.48-.6-1.38-1.09.1-1.08.3-4.63.3-5.91,0-.59-.3-1.08-.89-.78-2.07,1.28-6.7,4-9.75,5.61-2.46,1.38-3.55,1.77-4.92,1.77a8.71,8.71,0,0,1-8.38-8.76c0-3.25,3-6,6.21-8a62.52,62.52,0,0,1,17.14-6.31,1.1,1.1,0,0,0,.78-1.18c-.09-6.7-2.36-12.9-9.84-12.9A9.08,9.08,0,0,0,140,32.82c-1.28,1.08-2.36,4.14-2.66,7.19,0,.69-.29.89-1.08.49a5.87,5.87,0,0,1-2.66-4.83c0-.68.59-1.28,1.77-2.16a53.71,53.71,0,0,1,10.15-6.11,12.63,12.63,0,0,1,4.92-1.48C157.41,25.92,161.35,33,161.35,41.88Zm-6,15.17a3.28,3.28,0,0,0,.88-2.17c.1-1.18.2-4.33.2-6.1,0-1-.39-1.48-1.77-1.48-4.53.19-11.82,2.66-14.09,4.23-2,1.48-2.56,2.56-2.56,4.24a6.37,6.37,0,0,0,6.5,6.7C148,62.47,153.37,59.12,155.34,57.05Z"/><path class="cls-1" d="M189,34.2a2.07,2.07,0,0,0-1.18-1.48,18.18,18.18,0,0,0-4.93-1.28c-.69,0,.6-1.38,1.19-1.58,4.23-1.08,7.09-2.26,9.16-4,.39-.2.69,0,.78.59a44.09,44.09,0,0,1,.69,7.29c0,.78.3,1.18,1.09.59,1.47-1,5.51-4.34,7.48-5.72a11.62,11.62,0,0,1,7.49-2.66c8.37,0,11.72,7.39,11.72,16.16,0,7.58-1,15.26-1.08,18.22-.1.89.29,1.18.78,1.67,1,.79,3.45,1.78,6.9,2.17.49,0,.59.3.2.69a5.34,5.34,0,0,1-1.58,1A33.91,33.91,0,0,1,219.16,67a12.34,12.34,0,0,1-5.12-.69.36.36,0,0,1-.2-.59c.89-.79,2.27-2.07,2.46-3.16.3-1.37.69-6.2.69-14.67,0-10.34-1.77-17.14-9.55-17.14-4.63,0-8.57,2.66-11.52,6.8a5.65,5.65,0,0,0-1.19,3.94c0,7.78,0,15.95.2,19.6,0,1,.79,1.47,1.77,1.57a24,24,0,0,1,5.32.89c.3,0,.5.29.2.59-1.38,1-3.45,2.36-3.94,2.27a36.37,36.37,0,0,0-5.81-.4,70,70,0,0,0-10.34.79c-.69.1-.79-.2-.3-.59a6.5,6.5,0,0,1,2.07-2c.79-.3,1.87-.69,3-1.08A2.55,2.55,0,0,0,188.82,61c.5-1.77.89-7.09.89-12.21S189.61,37.05,189,34.2Z"/><path class="cls-1" d="M249.79,34.49c0-.49-.3-1.18-.69-1.28-1.38-.69-3.35-1.28-4.73-1.87-.49-.1.49-1.18,1-1.28A25.7,25.7,0,0,0,255,25.92c.59-.39,1-.29.79.3-.79,4.63-.89,17.73-.89,23.15,0,7.58.3,11.13.49,11.91.79,1.88,2.37,2.66,7.59,2.76.29,0,.29.3-.2.69a5.41,5.41,0,0,1-3.05,1.58c-2.27,0-5.12-.3-7.88-.3a64.66,64.66,0,0,0-7.59.49c-.49.2-.49-.19,0-.69a12.42,12.42,0,0,1,3.25-2c1.19-.39,2-.88,2.07-1.77.3-3.15.59-8.07.59-15.46C250.18,42.27,250.08,37.15,249.79,34.49Zm.69-23.14a5.69,5.69,0,0,1-1.58-4,2.33,2.33,0,0,1,.79-1.87c.69-.5,4.14-1.19,5.62-1.38.68,0,.88.19.68.79-.78,2-.49,4.63.69,5.91.4.39.1.59-.29.78a7.37,7.37,0,0,1-2.56.59C252.35,12.13,251.27,12,250.48,11.35Z"/><path class="cls-1" d="M306,26.42c.88-.3.69.39-.2,1.08a17.69,17.69,0,0,1-6.7,3.25,61.27,61.27,0,0,1-10.34.79,1.15,1.15,0,0,0-1.08.88,174.07,174.07,0,0,0-.2,18.13c0,4.73.79,7.88,2.76,9.85a8.74,8.74,0,0,0,6.11,2.26,14.53,14.53,0,0,0,8.37-2.85c.29-.1.49-.1.49.19a3.11,3.11,0,0,1-1,2c-1.88,2.07-6.9,5.32-11.92,5.32a9.28,9.28,0,0,1-6.8-2.36c-2.07-2.07-3.25-5.71-3.35-10.84-.1-8.86.4-19.7.4-21.67,0-.59-.2-1-.79-1a51.91,51.91,0,0,1-6.11-.89c-1.08-.19-1.18-.49-.69-.88s3.25-2.47,4-2.37c1,.1,2.17.2,3,.2.59,0,.89-.3.89-1.18.3-3.94.49-5.71,1.58-7.39,2.36-3.45,3.74-5.22,4.43-5.71s.89-.3.59.59c-.89,1.87-1.48,6.89-1.48,13.1,0,.39.4.59.79.69a58.22,58.22,0,0,0,8.47,0A41,41,0,0,0,306,26.42Z"/><path class="cls-1" d="M324.25,34.49c0-.49-.3-1.18-.69-1.28-1.38-.69-3.35-1.28-4.73-1.87-.49-.1.49-1.18,1-1.28a25.7,25.7,0,0,0,9.65-4.14c.59-.39,1-.29.79.3-.79,4.63-.89,17.73-.89,23.15,0,7.58.3,11.13.49,11.91.79,1.88,2.37,2.66,7.59,2.76.29,0,.29.3-.2.69a5.41,5.41,0,0,1-3.05,1.58c-2.27,0-5.12-.3-7.88-.3a64.66,64.66,0,0,0-7.59.49c-.49.2-.49-.19,0-.69a12.42,12.42,0,0,1,3.25-2c1.19-.39,2-.88,2.07-1.77.3-3.15.59-8.07.59-15.46C324.64,42.27,324.54,37.15,324.25,34.49Zm.69-23.14a5.69,5.69,0,0,1-1.58-4,2.33,2.33,0,0,1,.79-1.87c.69-.5,4.14-1.19,5.61-1.38.69,0,.89.19.69.79-.78,2-.49,4.63.69,5.91.4.39.1.59-.29.78a7.37,7.37,0,0,1-2.56.59C326.81,12.13,325.73,12,324.94,11.35Z"/><g id="Turtle"><g id="Right_lower_leg" data-name="Right lower leg"><path class="cls-1" d="M49.74,70.84c-2-.62-7.52-2.63-9.48-6.06.54-.76,1.1-1.56,1.67-2.39,1.23-1.8,2.43-3.65,3.56-5.5l1-1.64a18.14,18.14,0,0,1,3.26,4.23C51.63,63,50.28,68.87,49.74,70.84Z"/><path d="M46.63,56.47a17.2,17.2,0,0,1,2.45,3.37c1.58,2.89.71,7.7.14,10-2.71-.93-6.43-2.71-8-5.08.48-.68.94-1.34,1.38-2C43.79,61,45,59.14,46.14,57.28c.16-.27.32-.54.49-.81m-.33-2.41c-.47.82-1,1.64-1.45,2.44-1.17,1.92-2.38,3.77-3.54,5.47-.66,1-1.3,1.88-1.92,2.75,0,.1.1.2.15.31,2.31,4.25,9.53,6.41,10.59,6.71h0a.13.13,0,0,0,.12-.09c.32-1,2.42-8.28.11-12.53a19.16,19.16,0,0,0-4.1-5.06Z"/><path class="cls-1" d="M47.75,66.66c-1.27-.43-4.09-1.55-5-3.33a8.81,8.81,0,0,1-.56-1.25c1-1.48,2-3,2.94-4.51a10.26,10.26,0,0,1,2.6,3C48.5,62.11,48.26,64.68,47.75,66.66Z"/><path d="M45.25,58.7A9.29,9.29,0,0,1,47,61c.64,1.16.49,3.14.18,4.7C45.73,65.08,44,64.14,43.36,63a8.34,8.34,0,0,1-.38-.8c.77-1.15,1.53-2.31,2.27-3.48m-.4-2.2c-1.17,1.92-2.38,3.77-3.54,5.47A9.77,9.77,0,0,0,42,63.69c1.29,2.39,5.27,3.64,6.08,3.88h.05a.14.14,0,0,0,.13-.1c.24-.8,1.35-4.82,0-7.22a10.77,10.77,0,0,0-3.49-3.75Z"/></g><g id="Left_lower_leg" data-name="Left lower leg"><path class="cls-1" d="M15.66,70.84c-.51-1.84-1.92-7.84,0-11.36a17.27,17.27,0,0,1,3-4c.34.58.69,1.14,1.05,1.7C21,59.11,22.28,61,23.6,62.88c.49.69,1,1.37,1.47,2C23.06,68.27,17.43,70.28,15.66,70.84Z"/><path d="M18.56,56.69c.19.3.37.6.56.88,1.23,2,2.54,3.89,3.87,5.73.39.56.78,1.1,1.16,1.62-1.83,2.56-5.9,4.23-8,5-.56-2.3-1.44-7.14.14-10a16.64,16.64,0,0,1,2.24-3.14m.3-2.41A18.84,18.84,0,0,0,15,59.12c-2.24,4.11-.34,11,.07,12.41a.27.27,0,0,0,.25.19h.07c1.38-.4,8.22-2.57,10.46-6.68a2,2,0,0,1,.11-.2c-.58-.76-1.16-1.56-1.75-2.39-1.26-1.75-2.55-3.66-3.83-5.67-.51-.81-1-1.65-1.52-2.49Z"/><path class="cls-1" d="M18,66.63c-.34-1.35-.91-4.29.06-6a9.75,9.75,0,0,1,2.19-2.71c1,1.59,2.08,3.15,3.16,4.67-.11.26-.23.51-.36.76C22,65.08,19.21,66.2,18,66.63Z"/><path d="M20.06,59c.8,1.21,1.61,2.41,2.44,3.58l-.16.32c-.64,1.17-2.37,2.11-3.85,2.7-.34-1.69-.43-3.59.18-4.71A9.09,9.09,0,0,1,20.06,59m.32-2.27a10.72,10.72,0,0,0-3,3.45c-1.31,2.39-.2,6.41,0,7.22a.14.14,0,0,0,.14.1h0c.81-.23,4.79-1.48,6.08-3.87a10.37,10.37,0,0,0,.56-1.22c-1.26-1.75-2.55-3.66-3.83-5.67Z"/></g><g id="Right_Upper_leg" data-name="Right Upper leg"><path class="cls-1" d="M65.67,42.74c-1.79-2.9-5.66-8.13-11.26-10.05,0-1-.06-2-.15-2.84a22.58,22.58,0,0,0-1.66-7,14.93,14.93,0,0,0-1.09-2.15,13.85,13.85,0,0,1,9.63,4.64C66,30.39,66,38.76,65.67,42.74Z"/><path d="M52.84,21.59A13.83,13.83,0,0,1,60.6,25.9c3.84,4,4.49,10.28,4.43,14.5-2.07-2.9-5.39-6.53-9.88-8.24,0-.83-.07-1.63-.14-2.38A23.65,23.65,0,0,0,53.3,22.6c-.14-.34-.3-.68-.46-1M51.4,20a10.41,10.41,0,0,0-1.26.07,14.44,14.44,0,0,1,1.78,3.12,22.39,22.39,0,0,1,1.6,6.74c.09,1,.14,2.09.14,3.24v.08C61.06,35.45,65.47,43.78,66.08,45a.05.05,0,0,0,0,0,0,0,0,0,0,0-.05c.24-1.53,1.85-13.52-4.49-20.11C58.33,21.4,54.61,20,51.4,20Z"/><path class="cls-1" d="M61.41,33.37a18.5,18.5,0,0,0-6.24-3.73l-1-.29A23.4,23.4,0,0,0,53,24a9.61,9.61,0,0,1,5.15,3.18A14.3,14.3,0,0,1,61.41,33.37Z"/><path d="M54.17,25.1a10,10,0,0,1,3.45,2.55,13.41,13.41,0,0,1,2.3,3.59,16.65,16.65,0,0,0-4.54-2.32l-.48-.15a25.09,25.09,0,0,0-.73-3.67m-1.83-1.94-.42,0a22.39,22.39,0,0,1,1.6,6.74l1.44.44c3.5,1.05,7,4.47,7.47,5l0,0a0,0,0,0,0,0,0,15.15,15.15,0,0,0-3.75-8.73c-2-2.25-4.57-3.49-6.4-3.49Z"/></g><g id="Left_upper_leg" data-name="Left upper leg"><path class="cls-1" d="M.81,42.3C.57,38.28.73,29.94,5.64,25a14.33,14.33,0,0,1,8.77-4.46A17,17,0,0,0,13,23.05a22.19,22.19,0,0,0-1.9,7C11,31,10.9,32,10.87,33,6,35.1,2.5,39.66.81,42.3Z"/><path d="M12.9,21.56c-.21.38-.4.76-.59,1.16a22.91,22.91,0,0,0-2,7.24c-.1.8-.17,1.64-.2,2.5A24.27,24.27,0,0,0,1.49,40c0-4.25.76-10.51,4.68-14.44a14.33,14.33,0,0,1,6.73-4m2.39-1.78c-3.18,0-6.85,1.36-10.18,4.71C-1.19,30.81,0,42.4.26,44.39a.1.1,0,0,0,.1.08.08.08,0,0,0,.08,0C1.2,43,5.18,36,11.61,33.45c0-1.15.09-2.26.21-3.31a21.54,21.54,0,0,1,1.84-6.77A15,15,0,0,1,16,19.8l-.67,0Z"/><path class="cls-1" d="M4.08,33.54a14.4,14.4,0,0,1,3.23-6.22,9.59,9.59,0,0,1,5.2-3.18,22.6,22.6,0,0,0-1.37,5.43l-.82.24A18.57,18.57,0,0,0,4.08,33.54Z"/><path d="M11.31,25.28A24.27,24.27,0,0,0,10.46,29l-.06,0-.3.08a16.35,16.35,0,0,0-4.53,2.33,13.3,13.3,0,0,1,2.3-3.6,10,10,0,0,1,3.44-2.54m1.85-2c-1.83,0-4.39,1.24-6.41,3.49A15.15,15.15,0,0,0,3,35.55a0,0,0,0,0,0,0h0a19.54,19.54,0,0,1,7.47-5l1.29-.39a21.54,21.54,0,0,1,1.84-6.77,2.74,2.74,0,0,0-.5,0Z"/></g><g id="Head"><path class="cls-1" d="M24.13,14c-.08-.82-.12-1.72-.12-2.73,0-5.06,7.08-9.5,8.62-10.41,1.54.91,8.61,5.35,8.61,10.41,0,.91,0,1.73-.1,2.47a25.56,25.56,0,0,0-2.65-.47,41.81,41.81,0,0,0-5.73-.35,34.24,34.24,0,0,0-6,.5A21,21,0,0,0,24.13,14Z"/><path d="M32.63,1.72c2,1.22,7.86,5.19,7.86,9.53,0,.55,0,1.07,0,1.56-.6-.12-1.21-.22-1.84-.3a42.16,42.16,0,0,0-5.85-.36,34.18,34.18,0,0,0-6.14.51c-.61.1-1.21.22-1.81.36,0-.55,0-1.14,0-1.77,0-4.34,5.87-8.31,7.87-9.53m0-1.72-.08,0c-.92.51-9.29,5.35-9.29,11.23A25.8,25.8,0,0,0,23.5,15a21,21,0,0,1,3.35-.82,33,33,0,0,1,5.91-.49A39.64,39.64,0,0,1,38.4,14a22.69,22.69,0,0,1,3.38.66A24.78,24.78,0,0,0,42,11.25C42,5.37,33.63.53,32.71,0l-.08,0Z"/><path class="cls-1" d="M27.48,13.28a17.12,17.12,0,0,1-.11-2c0-3,4.08-5.64,5.26-6.35,1.3.79,5.25,3.42,5.25,6.35a15.63,15.63,0,0,1-.11,1.91,43.92,43.92,0,0,0-5-.26A34.86,34.86,0,0,0,27.48,13.28Z"/><path d="M32.63,5.78c1.68,1.07,4.5,3.32,4.5,5.47,0,.39,0,.75,0,1.09-1.32-.13-2.75-.19-4.34-.19a37.21,37.21,0,0,0-4.6.27c0-.35,0-.74,0-1.17,0-2,2.49-4.2,4.51-5.47m0-1.74-.05,0c-.59.33-6,3.42-6,7.19a15.46,15.46,0,0,0,.23,2.89,33,33,0,0,1,5.91-.49A39.64,39.64,0,0,1,38.4,14a14.17,14.17,0,0,0,.23-2.75c0-3.77-5.36-6.86-6-7.19l0,0Z"/></g><g id="Body"><path class="cls-1" d="M32.83,69.6c-3-3.58-18.78-22.81-18.78-35.49C14.05,21.92,20.2,16,32.85,16c13,0,18.53,5.16,18.53,17.27C51.38,46,35.8,65.92,32.83,69.6Z"/><path d="M32.85,16.75c12.63,0,17.78,4.78,17.78,16.53S36.78,63.41,32.82,68.41c-4-4.86-18-22.55-18-34.3s5.73-17.36,18.05-17.36m0-1.5c-11.09,0-19.55,4.37-19.55,18.86C13.3,48,31.19,68.86,32.74,70.64a.14.14,0,0,0,.1.06.14.14,0,0,0,.11-.06c1.52-1.84,19.18-23.51,19.18-37.36,0-14.49-8.2-18-19.28-18Z"/><path class="cls-1" d="M32.8,62c-3.29-4-14.38-18.3-14.38-27.81S23,20.13,32.82,20.13C42.9,20.13,47,24,47,33.53S36,57.86,32.8,62Z"/><path d="M32.82,21.38c9.32,0,13,3.41,13,12.15,0,7.51-7.49,19.27-13,26.48-5.56-7-13.1-18.33-13.1-25.81,0-8.86,4-12.82,13.15-12.82m0-2.5c-8.88,0-15.65,3.56-15.65,15.32,0,11.26,14.32,28.23,15.56,29.68a.14.14,0,0,0,.09,0,.1.1,0,0,0,.08,0c1.22-1.49,15.37-19.09,15.37-30.35,0-11.77-6.57-14.65-15.45-14.65Z"/></g><g id="Swirl"><path class="cls-2" d="M42,32c-2.4-4.6-5.28-6.12-9.57-6.05a8.6,8.6,0,0,0-7.7,5.5c-1.67,4-1.25,10.7,2.43,14.23a7.45,7.45,0,0,0,12.15-3c1.49-4.22-.74-11.12-6.14-11-3.27.07-4.28,2.54-4.42,4.79-.24,3.79,3,5.54,4.56,4.29"/></g></g></g></g></g></g></svg>