<svg xmlns="http://www.w3.org/2000/svg" viewBox="0 0 179.6 40.77"><defs><style>.cls-1{fill:#fff;}.cls-2{fill:#fffdf7;}.cls-3,.cls-4{stroke:#fffdf7;stroke-width:0.81px;}.cls-3{stroke-miterlimit:10;}.cls-4{fill:none;stroke-linecap:round;stroke-linejoin:round;}</style></defs><g id="Layer_2" data-name="Layer 2"><g id="About_Page" data-name="About Page"><g id="Header"><g id="Logo"><path class="cls-1" d="M69,15.6c.45-.15.35.2-.1.55a8.94,8.94,0,0,1-3.39,1.64,30.59,30.59,0,0,1-5.23.4.57.57,0,0,0-.54.45,87.33,87.33,0,0,0-.1,9.16c0,2.39.39,4,1.39,5a4.42,4.42,0,0,0,3.09,1.15,7.37,7.37,0,0,0,4.23-1.44c.15-.05.25-.05.25.1a1.59,1.59,0,0,1-.5,1,9.18,9.18,0,0,1-6,2.69,4.71,4.71,0,0,1-3.44-1.19c-1-1-1.64-2.89-1.69-5.48-.05-4.49.2-10,.2-11,0-.3-.1-.5-.4-.5a26.4,26.4,0,0,1-3.09-.45c-.55-.1-.6-.25-.35-.44s1.64-1.25,2-1.2,1.1.1,1.55.1.45-.15.45-.6c.14-2,.24-2.89.79-3.73a15.89,15.89,0,0,1,2.24-2.89c.3-.25.45-.15.3.3-.45.94-.74,3.48-.74,6.62,0,.2.19.3.39.35a29.87,29.87,0,0,0,4.29,0A20.57,20.57,0,0,0,69,15.6Z"/><path class="cls-1" d="M90.44,23.42c0,3.74-.25,7.92-.4,9.51a.78.78,0,0,0,.3.6c.7.55,2.49.65,4.08.45.25,0,0,.35-.3.6-1.74,1.54-4.78,1.89-5.82,1.89-.5,0-.75-.3-.7-.55.05-.55.15-2.34.15-3,0-.3-.15-.54-.45-.39-1,.64-3.39,2-4.93,2.83a4.83,4.83,0,0,1-2.49.9,4.4,4.4,0,0,1-4.23-4.43c0-1.65,1.49-3,3.13-4a31.36,31.36,0,0,1,8.67-3.18.56.56,0,0,0,.4-.6c0-3.39-1.2-6.53-5-6.53a4.57,4.57,0,0,0-3.24,1.35,6.11,6.11,0,0,0-1.34,3.63c0,.35-.15.45-.55.25a3,3,0,0,1-1.35-2.44c0-.35.3-.64.9-1.09a27.44,27.44,0,0,1,5.13-3.09,6.41,6.41,0,0,1,2.49-.75C88.45,15.35,90.44,18.94,90.44,23.42Zm-3,7.67A1.68,1.68,0,0,0,87.85,30c.05-.6.1-2.2.1-3.09,0-.5-.2-.75-.9-.75a18.44,18.44,0,0,0-7.12,2.14c-1,.75-1.3,1.3-1.3,2.14a3.22,3.22,0,0,0,3.29,3.39C83.66,33.83,86.4,32.14,87.4,31.09Z"/><path class="cls-1" d="M104.44,19.54a1,1,0,0,0-.6-.75,9.25,9.25,0,0,0-2.49-.65c-.35,0,.3-.7.59-.8a11.06,11.06,0,0,0,4.64-2c.2-.1.35,0,.4.3a23.86,23.86,0,0,1,.34,3.69c0,.4.15.59.55.3.75-.5,2.79-2.2,3.79-2.89a5.82,5.82,0,0,1,3.78-1.35c4.24,0,5.93,3.74,5.93,8.17,0,3.84-.5,7.72-.55,9.21,0,.45.15.6.4.85a7.57,7.57,0,0,0,3.49,1.1c.24,0,.29.15.1.35a2.87,2.87,0,0,1-.8.49,17.15,17.15,0,0,1-4.33.6,6.19,6.19,0,0,1-2.59-.35.18.18,0,0,1-.1-.3,3.76,3.76,0,0,0,1.24-1.59,50.33,50.33,0,0,0,.35-7.42c0-5.23-.9-8.67-4.83-8.67a7.27,7.27,0,0,0-5.83,3.44,2.87,2.87,0,0,0-.6,2c0,3.94,0,8.07.1,9.91,0,.5.4.75.9.8a12,12,0,0,1,2.69.45c.15,0,.25.15.1.3a6.88,6.88,0,0,1-2,1.14,18.66,18.66,0,0,0-2.94-.2A35.65,35.65,0,0,0,101,36c-.35,0-.4-.1-.15-.3a3.31,3.31,0,0,1,1-1c.39-.15.94-.35,1.54-.55a1.3,1.3,0,0,0,1-1.1,34,34,0,0,0,.44-6.17A52.31,52.31,0,0,0,104.44,19.54Z"/><path class="cls-1" d="M135.17,19.69c0-.25-.15-.6-.35-.65-.7-.35-1.7-.65-2.39-.95-.25-.05.25-.6.5-.65a12.94,12.94,0,0,0,4.88-2.09c.3-.2.49-.15.4.15a110.3,110.3,0,0,0-.45,11.71,41,41,0,0,0,.25,6c.39,1,1.19,1.35,3.83,1.4.15,0,.15.15-.1.35a2.76,2.76,0,0,1-1.54.79c-1.15,0-2.59-.15-4-.15a31.74,31.74,0,0,0-3.83.25c-.25.1-.25-.1,0-.35a6.23,6.23,0,0,1,1.64-1c.6-.2,1-.45,1-.9.15-1.59.3-4.08.3-7.82C135.37,23.62,135.32,21,135.17,19.69ZM135.52,8a2.86,2.86,0,0,1-.8-2,1.18,1.18,0,0,1,.4-1A11.8,11.8,0,0,1,138,4.3c.34,0,.44.1.34.39a3.16,3.16,0,0,0,.35,3c.2.2,0,.3-.15.4a3.69,3.69,0,0,1-1.29.3A2.42,2.42,0,0,1,135.52,8Z"/><path class="cls-1" d="M163.61,15.6c.45-.15.35.2-.1.55a8.94,8.94,0,0,1-3.39,1.64,30.78,30.78,0,0,1-5.23.4.59.59,0,0,0-.55.45,87.33,87.33,0,0,0-.1,9.16c0,2.39.4,4,1.4,5a4.42,4.42,0,0,0,3.09,1.15A7.37,7.37,0,0,0,163,32.49c.15-.05.25-.05.25.1a1.59,1.59,0,0,1-.5,1,9.23,9.23,0,0,1-6,2.69,4.68,4.68,0,0,1-3.43-1.19c-1.05-1-1.65-2.89-1.7-5.48-.05-4.49.2-10,.2-11,0-.3-.1-.5-.4-.5a26.18,26.18,0,0,1-3.08-.45c-.55-.1-.6-.25-.35-.44s1.64-1.25,2-1.2,1.1.1,1.54.1.45-.15.45-.6c.15-2,.25-2.89.8-3.73A15.41,15.41,0,0,1,155,8.93c.3-.25.45-.15.3.3-.45.94-.75,3.48-.75,6.62,0,.2.2.3.4.35a29.74,29.74,0,0,0,4.28,0A20.66,20.66,0,0,0,163.61,15.6Z"/><path class="cls-1" d="M172.82,19.69c0-.25-.15-.6-.35-.65-.69-.35-1.69-.65-2.39-.95-.25-.05.25-.6.5-.65a12.87,12.87,0,0,0,4.88-2.09c.3-.2.5-.15.4.15a110.3,110.3,0,0,0-.45,11.71,41,41,0,0,0,.25,6c.4,1,1.2,1.35,3.84,1.4.15,0,.15.15-.1.35a2.79,2.79,0,0,1-1.55.79c-1.14,0-2.59-.15-4-.15a31.78,31.78,0,0,0-3.84.25c-.25.1-.25-.1,0-.35a6.29,6.29,0,0,1,1.65-1c.59-.2,1-.45,1-.9.15-1.59.3-4.08.3-7.82C173,23.62,173,21,172.82,19.69ZM173.17,8a2.86,2.86,0,0,1-.8-2,1.18,1.18,0,0,1,.4-1,11.8,11.8,0,0,1,2.84-.69c.35,0,.45.1.35.39a3.1,3.1,0,0,0,.35,3c.2.2.05.3-.15.4a3.8,3.8,0,0,1-1.3.3A2.45,2.45,0,0,1,173.17,8Z"/><g id="turtle"><g id="Right_lower_leg" data-name="Right lower leg"><path d="M28.58,40.71s-.06.07-.1,0c-.6-.17-4.7-1.4-6-3.81l-.09-.18c.35-.49.72-1,1.09-1.56.66-1,1.35-2,2-3.11.27-.45.55-.91.82-1.38a11,11,0,0,1,2.33,2.87C30,36,28.76,40.12,28.58,40.71Z"/><path d="M27.22,38c-.65-.21-2.46-.88-3.07-2a5,5,0,0,1-.34-.78c.61-.91,1.21-1.82,1.77-2.73a5.89,5.89,0,0,1,1.62,1.85C27.81,35.49,27.41,37.33,27.22,38Z"/><path class="cls-2" d="M25.66,33a5.72,5.72,0,0,1,1.28,1.54A5,5,0,0,1,27,37.65a5.06,5.06,0,0,1-2.58-1.75,4.11,4.11,0,0,1-.28-.6c.52-.76,1-1.54,1.52-2.32m-.17-.88c-.67,1.09-1.36,2.14-2,3.11a5.08,5.08,0,0,0,.42,1c.73,1.36,3,2.07,3.45,2.2h0s.06,0,.08-.06c.13-.46.76-2.74,0-4.11a6.16,6.16,0,0,0-2-2.13Z"/></g><g id="Left_lower_leg" data-name="Left lower leg"><path d="M14.75,36.84l-.06.11c-1.27,2.34-5.16,3.57-5.94,3.79a.15.15,0,0,1-.19-.1c-.23-.77-1.31-4.71,0-7a10.7,10.7,0,0,1,2.2-2.75c.28.48.57,1,.86,1.42.73,1.14,1.46,2.22,2.18,3.22C14.09,36,14.42,36.41,14.75,36.84Z"/><path d="M10.11,38c-.19-.71-.59-2.56,0-3.66A5.77,5.77,0,0,1,11.5,32.7c.62,1,1.26,1.91,1.92,2.82-.08.18-.16.35-.25.51C12.57,37.14,10.76,37.81,10.11,38Z"/><path class="cls-2" d="M11.44,33.16c.53.81,1.07,1.61,1.63,2.4a3.18,3.18,0,0,1-.16.32,5,5,0,0,1-2.59,1.75,5.07,5.07,0,0,1,.07-3.13,5.36,5.36,0,0,1,1-1.34m.14-.9a6,6,0,0,0-1.72,2c-.74,1.36-.11,3.64,0,4.1a.08.08,0,0,0,.08.06s0,0,0,0c.46-.13,2.72-.84,3.46-2.2a5.42,5.42,0,0,0,.32-.69c-.72-1-1.45-2.08-2.18-3.22Z"/></g><g id="Right_Upper_leg" data-name="Right Upper leg"><path d="M37.6,25.55a0,0,0,0,1-.05,0c-.35-.68-2.86-5.42-7.06-6.67v-.05c0-.65,0-1.27-.08-1.84a12.46,12.46,0,0,0-.91-3.83,8.17,8.17,0,0,0-1-1.77,7.94,7.94,0,0,1,6.56,2.73C38.65,17.87,37.74,24.68,37.6,25.55Z"/><path d="M35.1,19.31A10.77,10.77,0,0,0,31.31,17l-.62-.19a13.69,13.69,0,0,0-.74-3.3,5.37,5.37,0,0,1,3.2,1.87A8.4,8.4,0,0,1,35.1,19.31Z"/><path class="cls-2" d="M30.4,13.86a5.57,5.57,0,0,1,2.53,1.68,8,8,0,0,1,1.65,2.93,10.22,10.22,0,0,0-3.18-1.8L31,16.54a14.08,14.08,0,0,0-.57-2.68m-.66-.7H29.5A12.46,12.46,0,0,1,30.41,17l.82.25a11.21,11.21,0,0,1,4.25,2.87h0s0,0,0,0a8.65,8.65,0,0,0-2.13-5,5.46,5.46,0,0,0-3.64-2Z"/></g><g id="Left_upper_leg" data-name="Left upper leg"><path d="M7.76,13.28a12.14,12.14,0,0,0-1,3.85A18.39,18.39,0,0,0,6.6,19C3,20.46.68,24.42.25,25.24a.05.05,0,0,1-.1,0C0,24.09-.68,17.51,2.9,13.91a8.08,8.08,0,0,1,6.17-2.66A8.84,8.84,0,0,0,7.76,13.28Z"/><path d="M2.12,19.4a8.38,8.38,0,0,1,1.94-4A5.39,5.39,0,0,1,7.3,13.57a13,13,0,0,0-.86,3.32l-.54.17A10.67,10.67,0,0,0,2.12,19.4Z"/><path class="cls-2" d="M6.83,14a13.68,13.68,0,0,0-.66,2.7l-.2.06-.16.05a10.24,10.24,0,0,0-3.17,1.79,8,8,0,0,1,1.65-2.92A5.54,5.54,0,0,1,6.83,14m.65-.7a5.44,5.44,0,0,0-3.64,2,8.5,8.5,0,0,0-2.13,5,0,0,0,0,0,0,0h0A11,11,0,0,1,6,17.35l.73-.22a12.14,12.14,0,0,1,1-3.85,1.27,1.27,0,0,0-.28,0Z"/></g><g id="Head"><path d="M23.86,6.39a13.39,13.39,0,0,1-.12,1.94A13.59,13.59,0,0,0,21.82,8a23,23,0,0,0-3.2-.19A19.47,19.47,0,0,0,15.26,8a12.12,12.12,0,0,0-1.91.47,15.73,15.73,0,0,1-.13-2.11C13.22,3.05,18,.3,18.49,0h.1C19.11.3,23.86,3.05,23.86,6.39Z"/><path d="M15.51,7.69a8.22,8.22,0,0,1-.08-1.3C15.43,4.58,18,3,18.54,2.64c.66.39,3.11,2,3.11,3.75a9,9,0,0,1-.08,1.23,23.62,23.62,0,0,0-2.95-.16A18.84,18.84,0,0,0,15.51,7.69Z"/><path class="cls-2" d="M18.54,3c1.1.67,2.81,2.05,2.81,3.4,0,.33,0,.62,0,.89-.81-.08-1.7-.13-2.69-.13a21.19,21.19,0,0,0-2.85.19,9,9,0,0,1,0-1c0-1.35,1.71-2.73,2.81-3.4m0-.69h0c-.33.18-3.38,1.94-3.38,4.08A8.46,8.46,0,0,0,15.26,8a19.47,19.47,0,0,1,3.36-.27,23,23,0,0,1,3.2.19A8.56,8.56,0,0,0,22,6.39c0-2.14-3-3.9-3.38-4.08Z"/></g><g id="Body"><path d="M29.62,18.91c0,7.87-10,20.18-10.9,21.23a.07.07,0,0,1-.12,0c-.88-1-11-12.89-11-20.76,0-8.23,4.8-10.72,11.1-10.72S29.62,10.68,29.62,18.91Z"/><path class="cls-3" d="M27.42,19.05c0,6.4-8,16.4-8.72,17.25a.07.07,0,0,1-.1,0c-.71-.83-8.85-10.47-8.85-16.87,0-6.68,3.85-8.7,8.9-8.7S27.42,12.37,27.42,19.05Z"/></g><g id="Swirl"><path class="cls-4" d="M24.26,18c-1.46-2.81-3.22-3.74-5.84-3.7a5.25,5.25,0,0,0-4.7,3.36c-1,2.45-.77,6.54,1.48,8.69a4.55,4.55,0,0,0,7.42-1.84c.91-2.58-.45-6.79-3.75-6.73-2,0-2.61,1.55-2.7,2.93C16,23,18,24.07,19,23.31"/></g></g></g></g></g></g></svg>